<?xml version="1.0" encoding="iso-8859-1"?>
<!-- Generator: Adobe Illustrator 19.0.0, SVG Export Plug-In . SVG Version: 6.00 Build 0)  -->
<svg version="1.1" id="Layer_1" xmlns="http://www.w3.org/2000/svg" xmlns:xlink="http://www.w3.org/1999/xlink" x="0px" y="0px"
	 viewBox="0 0 307.116 307.116" style="enable-background:new 0 0 307.116 307.116;" xml:space="preserve">
<g id="box">
	<rect x="22.31" y="30.933" style="fill:#FFFFFF;" width="262.496" height="165.804"/>
</g>
<g>
	<rect x="7.859" y="5" style="fill:#A7A9AC;" width="291.398" height="25.933"/>
	<rect x="7.859" y="196.737" style="fill:#A7A9AC;" width="291.398" height="25.933"/>
	<path style="fill:#393654;" d="M299.257,35.934c2.761,0,5-2.238,5-5V5c0-2.762-2.239-5-5-5H7.859c-2.761,0-5,2.238-5,5v25.934
		c0,2.762,2.239,5,5,5h9.451v155.804H7.859c-2.761,0-5,2.238-5,5v25.934c0,2.762,2.239,5,5,5h140.699v15.399l-54.567,55.541
		c-1.935,1.97-1.907,5.136,0.063,7.07c1.969,1.938,5.136,1.907,7.071-0.063l19.347-19.692h66.172l19.347,19.692
		c1.934,1.97,5.102,1.998,7.071,0.063c1.97-1.935,1.998-5.101,0.063-7.07l-54.567-55.541v-15.399h140.699c2.761,0,5-2.238,5-5
		v-25.934c0-2.762-2.239-5-5-5h-9.451V35.934H299.257z M130.296,275.927l23.261-23.677l23.262,23.677H130.296z M12.859,10h281.398
		v15.934c-14.982,0-267.484,0-281.398,0C12.859,25.934,12.859,10,12.859,10z M294.257,217.671H12.859v-15.934h9.451h262.496h9.451
		V217.671z M279.806,191.737H27.31V35.934h252.496V191.737z"/>
</g>
</svg>
